<svg xmlns="http://www.w3.org/2000/svg" width="133.377" height="41.292" viewBox="0 0 133.377 41.292">
  <path id="Контур_1" data-name="Контур 1" d="M26.5-40.992v14.776h-.32a12.971,12.971,0,0,0-9.356-3.995A15.272,15.272,0,0,0,1.584-14.956,15.275,15.275,0,0,0,16.839.3,15.272,15.272,0,0,0,32.095-14.956V-40.992Zm-9.66,35.7A9.673,9.673,0,0,1,7.18-14.956a9.673,9.673,0,0,1,9.662-9.662A9.673,9.673,0,0,1,26.5-14.956,9.673,9.673,0,0,1,16.841-5.294Zm35.47-24.917A15.272,15.272,0,0,0,37.056-14.956,15.272,15.272,0,0,0,52.311.3,15.272,15.272,0,0,0,67.567-14.956,15.272,15.272,0,0,0,52.311-30.211Zm0,24.917a9.673,9.673,0,0,1-9.662-9.662,9.673,9.673,0,0,1,9.662-9.662,9.673,9.673,0,0,1,9.662,9.662A9.673,9.673,0,0,1,52.311-5.294Zm42.015-8.879a13.22,13.22,0,0,0,3.857-9.336v-5.9h-5.6v5.9a7.673,7.673,0,0,1-7.664,7.664H78.7V-40.752H73.1V-.023h5.6V-10.249h9.2a7.673,7.673,0,0,1,7.664,7.664V-.023h5.6V-2.585A13.263,13.263,0,0,0,94.326-14.173ZM119.7-30.211a15.272,15.272,0,0,0-15.255,15.255A15.272,15.272,0,0,0,119.7.3c.02,0,.039,0,.061,0a12.987,12.987,0,0,0,9.279-3.989h.322V-.267h5.6V-14.958A15.274,15.274,0,0,0,119.7-30.213Zm0,24.917a9.673,9.673,0,0,1-9.662-9.662,9.673,9.673,0,0,1,9.662-9.662,9.673,9.673,0,0,1,9.662,9.662A9.673,9.673,0,0,1,119.7-5.294Z" transform="translate(-1.584 40.992)" fill="#0c4a6e"/>
</svg>
