<svg xmlns="http://www.w3.org/2000/svg" xmlns:xlink="http://www.w3.org/1999/xlink" width="243" height="33" viewBox="0 0 243 33">
  <defs>
    <clipPath id="clip-SPRK_default_preset_name_custom_1">
      <rect width="243" height="33"/>
    </clipPath>
  </defs>
  <g id="SPRK_default_preset_name_custom_1" data-name="SPRK_default_preset_name_custom – 1" clip-path="url(#clip-SPRK_default_preset_name_custom_1)">
    <path id="Контур_1" data-name="Контур 1" d="M15.7-31.584a16.785,16.785,0,0,1,4.44.624,12.892,12.892,0,0,1,4.152,1.968,11.316,11.316,0,0,1,3.1,3.36,9.168,9.168,0,0,1,1.224,4.848V-10.8a9.3,9.3,0,0,1-1.224,4.872,10.942,10.942,0,0,1-3.1,3.36A13.181,13.181,0,0,1,20.136-.624,16.785,16.785,0,0,1,15.7,0H4.944a1.362,1.362,0,0,1-1.1-.36,1.618,1.618,0,0,1-.288-1.032v-28.8a1.618,1.618,0,0,1,.288-1.032,1.362,1.362,0,0,1,1.1-.36Zm5.376,11.472a4.377,4.377,0,0,0-1.488-3.552A5.847,5.847,0,0,0,15.7-24.912H11.088v18.24H15.7A5.847,5.847,0,0,0,19.584-7.92a4.377,4.377,0,0,0,1.488-3.552Zm38.5,9.984a9.424,9.424,0,0,1-1.224,4.9,10.851,10.851,0,0,1-3.1,3.384A13.181,13.181,0,0,1,51.1.1a16.785,16.785,0,0,1-4.44.624A16.523,16.523,0,0,1,42.24.1a13.221,13.221,0,0,1-4.128-1.944A10.593,10.593,0,0,1,35.04-5.232a9.573,9.573,0,0,1-1.2-4.9V-21.456a9.573,9.573,0,0,1,1.2-4.9,10.593,10.593,0,0,1,3.072-3.384A13.221,13.221,0,0,1,42.24-31.68a16.523,16.523,0,0,1,4.416-.624,16.785,16.785,0,0,1,4.44.624,13.182,13.182,0,0,1,4.152,1.944,10.851,10.851,0,0,1,3.1,3.384,9.424,9.424,0,0,1,1.224,4.9ZM52.032-20.784a4.449,4.449,0,0,0-1.488-3.576,5.775,5.775,0,0,0-3.888-1.272,5.7,5.7,0,0,0-3.84,1.272,4.449,4.449,0,0,0-1.488,3.576V-10.8a4.449,4.449,0,0,0,1.488,3.576,5.7,5.7,0,0,0,3.84,1.272,5.775,5.775,0,0,0,3.888-1.272A4.449,4.449,0,0,0,52.032-10.8Zm39.984-10.8q.672,0,.744.5a.936.936,0,0,1-.264.84L81.7-18.528,92.016-1.536a1.181,1.181,0,0,1,.12,1.008A.775.775,0,0,1,91.3,0H85.44a2.313,2.313,0,0,1-1.392-.384A4.062,4.062,0,0,1,83.04-1.536Q81.792-3.6,80.592-5.664,79.536-7.44,78.336-9.432t-2.16-3.624L73.2-9.936v8.544a1.362,1.362,0,0,1-.36,1.1A1.533,1.533,0,0,1,71.856,0H67.1a1.618,1.618,0,0,1-1.032-.288,1.362,1.362,0,0,1-.36-1.1v-28.8a1.362,1.362,0,0,1,.36-1.1,1.618,1.618,0,0,1,1.032-.288h4.752a1.533,1.533,0,0,1,.984.288,1.362,1.362,0,0,1,.36,1.1v10.7l9.936-10.944a3.629,3.629,0,0,1,1.152-.984,3.6,3.6,0,0,1,1.248-.168Zm32.256,30.24a1.417,1.417,0,0,1,.1.888q-.1.456-.912.456h-5.04a1.894,1.894,0,0,1-1.176-.288,2.5,2.5,0,0,1-.648-1.152l-1.344-3.792h-11.76L102.144-1.44A2.5,2.5,0,0,1,101.5-.288,1.894,1.894,0,0,1,100.32,0H95.28q-.816,0-.912-.456a1.417,1.417,0,0,1,.1-.888L105.12-30.1a2.644,2.644,0,0,1,.72-1.128,1.9,1.9,0,0,1,1.248-.36H111.7a1.8,1.8,0,0,1,1.224.36,3.2,3.2,0,0,1,.744,1.128Zm-11.28-10.608-3.6-10.608-3.6,10.608Z" transform="translate(-3 32)" fill="#0c4a6e"/>
    <path id="Контур_2" data-name="Контур 2" d="M18.048-17.954q1.269.376,2.726.893a10.04,10.04,0,0,1,2.726,1.48,7.592,7.592,0,0,1,2.092,2.491,8.241,8.241,0,0,1,.822,3.925,9.507,9.507,0,0,1-.94,4.347,8.548,8.548,0,0,1-2.609,3.079A11.762,11.762,0,0,1,18.918.094a19.3,19.3,0,0,1-5.006.611A16.435,16.435,0,0,1,9.447.071,13.609,13.609,0,0,1,5.382-1.81,10.254,10.254,0,0,1,2.421-4.935,8.11,8.11,0,0,1,1.269-9.259a1.449,1.449,0,0,1,.282-1.057,1.646,1.646,0,0,1,1.081-.259H7.191a2.646,2.646,0,0,1,1.2.212q.4.212.493,1.1a3.448,3.448,0,0,0,.235.94,3.377,3.377,0,0,0,.658.987,3.821,3.821,0,0,0,2,1.2,9.872,9.872,0,0,0,2.608.352,10.859,10.859,0,0,0,1.786-.141,4.577,4.577,0,0,0,1.48-.494,2.538,2.538,0,0,0,.987-.964,3.178,3.178,0,0,0,.352-1.6,1.878,1.878,0,0,0-.7-1.551,5.849,5.849,0,0,0-1.88-.94,26.561,26.561,0,0,0-2.632-.682q-1.457-.305-2.961-.775-1.786-.564-3.431-1.246A11.228,11.228,0,0,1,4.465-15.91a7.813,7.813,0,0,1-2.021-2.585,8.524,8.524,0,0,1-.752-3.784A8.071,8.071,0,0,1,2.656-26.3a8.922,8.922,0,0,1,2.538-2.867,11.751,11.751,0,0,1,3.642-1.763,17.691,17.691,0,0,1,4.277-.7,19.834,19.834,0,0,1,4.488.517,13.271,13.271,0,0,1,4.019,1.622,9.237,9.237,0,0,1,2.891,2.773,7.115,7.115,0,0,1,1.1,4.019q0,.846-.282,1.081a1.772,1.772,0,0,1-1.081.235H19.646a.891.891,0,0,1-.869-.4,9.013,9.013,0,0,1-.4-.87,3.109,3.109,0,0,0-.353-.681,5.6,5.6,0,0,0-.635-.729,3.913,3.913,0,0,0-1.786-.964,8.429,8.429,0,0,0-2.209-.306,8.222,8.222,0,0,0-1.293.118,4.5,4.5,0,0,0-1.363.447,3.322,3.322,0,0,0-1.057.846,2.01,2.01,0,0,0-.423,1.316,2.184,2.184,0,0,0,1.1,1.833,11.712,11.712,0,0,0,2.585,1.293,27.255,27.255,0,0,0,2.938.893A17.156,17.156,0,0,1,18.048-17.954ZM55.789-30.926a1.584,1.584,0,0,1,1.01.282,1.333,1.333,0,0,1,.353,1.081v28.2A1.333,1.333,0,0,1,56.8-.282,1.584,1.584,0,0,1,55.789,0H51.136a1.584,1.584,0,0,1-1.011-.282,1.333,1.333,0,0,1-.352-1.081V-11.985H39.292V-1.363a1.333,1.333,0,0,1-.353,1.081A1.584,1.584,0,0,1,37.929,0H33.276a1.584,1.584,0,0,1-1.011-.282,1.333,1.333,0,0,1-.352-1.081v-28.2a1.333,1.333,0,0,1,.352-1.081,1.584,1.584,0,0,1,1.011-.282h4.653a1.584,1.584,0,0,1,1.01.282,1.333,1.333,0,0,1,.353,1.081v10.622H49.773V-29.563a1.333,1.333,0,0,1,.352-1.081,1.584,1.584,0,0,1,1.011-.282ZM88.407-9.917a9.228,9.228,0,0,1-1.2,4.794A10.625,10.625,0,0,1,84.177-1.81a12.907,12.907,0,0,1-4.066,1.9,16.435,16.435,0,0,1-4.347.611A16.178,16.178,0,0,1,71.44.094,12.946,12.946,0,0,1,67.4-1.81,10.372,10.372,0,0,1,64.39-5.123a9.373,9.373,0,0,1-1.175-4.794V-21.009A9.373,9.373,0,0,1,64.39-25.8,10.372,10.372,0,0,1,67.4-29.117a12.946,12.946,0,0,1,4.042-1.9,16.179,16.179,0,0,1,4.324-.611,16.435,16.435,0,0,1,4.347.611,12.907,12.907,0,0,1,4.066,1.9A10.625,10.625,0,0,1,87.208-25.8a9.228,9.228,0,0,1,1.2,4.794ZM81.028-20.351a4.357,4.357,0,0,0-1.457-3.5A5.655,5.655,0,0,0,75.764-25.1,5.584,5.584,0,0,0,72-23.853a4.357,4.357,0,0,0-1.457,3.5v9.776A4.357,4.357,0,0,0,72-7.074a5.584,5.584,0,0,0,3.76,1.246,5.655,5.655,0,0,0,3.807-1.246,4.357,4.357,0,0,0,1.457-3.5Zm25.333-10.575a16.342,16.342,0,0,1,5.358.8,10.813,10.813,0,0,1,3.854,2.233,9.085,9.085,0,0,1,2.326,3.431,12.181,12.181,0,0,1,.776,4.441,11.862,11.862,0,0,1-.8,4.441A9.2,9.2,0,0,1,115.5-12.15a10.784,10.784,0,0,1-3.878,2.209,16.631,16.631,0,0,1-5.311.776H101.8v7.8a1.333,1.333,0,0,1-.353,1.081,1.584,1.584,0,0,1-1.01.282H95.786a1.584,1.584,0,0,1-1.011-.282,1.333,1.333,0,0,1-.353-1.081v-28.2a1.584,1.584,0,0,1,.282-1.011,1.333,1.333,0,0,1,1.081-.352Zm-.047,15.416a7.212,7.212,0,0,0,2.373-.352,4.439,4.439,0,0,0,1.645-.964,3.892,3.892,0,0,0,.94-1.387,4.511,4.511,0,0,0,.306-1.668,4.34,4.34,0,0,0-1.246-3.125,5.383,5.383,0,0,0-4.018-1.293H101.8v8.789Z" transform="translate(123 32)" fill="#2b7eae"/>
  </g>
</svg>
